# xmcd
#
# Track frame offsets:
# 150
# 12996
# 24642
# 37926
# 50930
# 65449
# 81758
# 96266
# 112769
# 126577
# 137507
# 154234
# 168244
# 183027
#
# Disc length: 2686 seconds
#
#
# Revision: 0
# Processed by: cddbd v1.5.1PL2 Copyright (c) Steve Scherf et al.
# Submitted via: FreeRIP 2.944 
#
DISCID=b30a7c0e
DTITLE=Chico Rey e Paraná - Laçada Certeira - 2001
DYEAR=2001
DGENRE=Country
TTITLE0=Aproveita minha gente
TTITLE1=Coisinha bela
TTITLE2=Tá com raiva de mim
TTITLE3=Laçada certeira
TTITLE4=Boêmio do colarinho branco
TTITLE5=Namoro escondido
TTITLE6=O que mata é a solidão
TTITLE7=Sangue bom
TTITLE8=Hoje eu quero ter você
TTITLE9=Solidão é um bicho chato
TTITLE10=Eu te preciso
TTITLE11=Feliz feito uma besta
TTITLE12=Fruto proíbido
TTITLE13=Operário, vida, viola
EXTD=
EXTT0=
EXTT1=
EXTT2=
EXTT3=
EXTT4=
EXTT5=
EXTT6=
EXTT7=
EXTT8=
EXTT9=
EXTT10=
EXTT11=
EXTT12=
EXTT13=
PLAYORDER=
